<svg xmlns="http://www.w3.org/2000/svg" width="153.44" height="68.33" viewBox="0 0 153.44 68.33">
  <defs>
    <style>
      .cls-1 {
        fill: #231f20;
      }

      .cls-2 {
        fill: #ec2127;
      }

      .cls-3 {
        fill: #fff;
      }
    </style>
  </defs>
  <g id="Group_280" data-name="Group 280" transform="translate(-45.935 -302.853)">
    <path id="Path_258" data-name="Path 258" class="cls-1" d="M6.2,0H147.241a6.2,6.2,0,0,1,6.2,6.2V29.934a6.2,6.2,0,0,1-6.2,6.2H6.2a6.2,6.2,0,0,1-6.2-6.2V6.2A6.2,6.2,0,0,1,6.2,0Z" transform="translate(45.935 323.153)"/>
    <path id="Path_257" data-name="Path 257" class="cls-2" d="M6.2,0H144.983a6.2,6.2,0,0,1,6.2,6.2V30.072a6.2,6.2,0,0,1-6.2,6.2H6.2a6.2,6.2,0,0,1-6.2-6.2V6.2A6.2,6.2,0,0,1,6.2,0Z" transform="translate(45.955 319.933)"/>
    <path id="Path_221" data-name="Path 221" class="cls-1" d="M519.147,338.3a3.43,3.43,0,1,1,3.483-3.448,3.435,3.435,0,0,1-3.483,3.448" transform="translate(-326.544 -19.871)"/>
    <path id="Path_222" data-name="Path 222" class="cls-3" d="M523.389,336.2a2.9,2.9,0,1,1-2.892-2.82,2.835,2.835,0,0,1,2.892,2.82m-5.076,0a2.187,2.187,0,0,0,2.2,2.255,2.162,2.162,0,0,0,2.153-2.236,2.179,2.179,0,1,0-4.354-.018m1.74,1.48H519.4v-2.821a5.6,5.6,0,0,1,1.083-.085,1.766,1.766,0,0,1,.982.206.782.782,0,0,1,.272.618.721.721,0,0,1-.582.654v.034a.83.83,0,0,1,.515.689,2.127,2.127,0,0,0,.206.7h-.705a2.383,2.383,0,0,1-.224-.687c-.052-.31-.223-.448-.585-.448h-.309Zm.016-1.6h.31c.361,0,.653-.122.653-.413,0-.258-.19-.43-.6-.43a1.638,1.638,0,0,0-.362.033Z" transform="translate(-327.894 -21.219)"/>
    <path id="Path_223" data-name="Path 223" class="cls-1" d="M76.838,355.163c-5.182,0-8.4-3.335-8.4-8.7,0-1.466.082-2.692.177-4.11.141-2.11.315-4.707.315-9.43a56.625,56.625,0,0,0-.517-8.354,26.633,26.633,0,0,1-.3-3.692c0-5.287,3.383-8.7,8.619-8.7a7.618,7.618,0,0,1,4.784,1.593,12.962,12.962,0,0,1,6.134-1.542,15.362,15.362,0,0,1,9.267,2.73,7.85,7.85,0,0,1-.268-2.007c0-9.269,7.268-9.269,9.656-9.269a8.017,8.017,0,0,1,4.061,1.045,8.311,8.311,0,0,1,5.537-1.869c5.285,0,7.965,3.171,7.965,9.424a33.593,33.593,0,0,1-.333,3.523,109.327,109.327,0,0,0-.978,13.723c0,.429.008.822.023,1.177a7.8,7.8,0,0,1,.857-.048,6.4,6.4,0,0,1,1.907.287,6.4,6.4,0,0,1,.845-.773,10.014,10.014,0,0,1-2.26-6.461c0-7.145,5.855-11.946,14.569-11.946,6.582,0,11.09,2.142,12.7,5.946,3.214-3.932,8.207-6,14.56-6,4.381,0,7.809.954,10.207,2.838a8.064,8.064,0,0,1,6.294-2.581,8.367,8.367,0,0,1,5.464,1.769,13.3,13.3,0,0,1,5.945-1.357c8.5,0,13.369,4.9,13.369,13.439,0,1-.047,1.918-.088,2.724l0,.09c-.037.751-.071,1.46-.071,2.181a23.253,23.253,0,0,0,.317,4.172,18.941,18.941,0,0,1,.284,3.19c0,4.7-3.365,7.983-8.182,7.983-4.69,0-7.965-3.177-7.965-7.725,0-1.493.086-2.9.169-4.264l.005-.091c.079-1.3.153-2.523.153-3.779,0-2.141-.249-2.736-.337-2.879h-.105c-1.153,0-1.153.347-1.153.976,0,2.59.115,4.334.216,5.872l0,.032c.084,1.311.165,2.549.165,4.031,0,4.67-3.365,7.931-8.183,7.931a8.323,8.323,0,0,1-5-1.647,8.636,8.636,0,0,1-5,1.492,7.736,7.736,0,0,1-5.19-1.812,11.449,11.449,0,0,1-6.273,1.812,12.483,12.483,0,0,1-10.205-4.728c-2.7,3.225-7.286,4.985-13.074,4.985a17.889,17.889,0,0,1-10.2-2.975,12.45,12.45,0,0,1-8.359,2.717,10.87,10.87,0,0,1-7.464-2.523,8.113,8.113,0,0,1-6.174,2.523c-3.939,0-6.5-1.439-7.623-4.282a15.021,15.021,0,0,1-10.814,4.129,17.139,17.139,0,0,1-2.473-.184c.007.24.01.471.01.7,0,6.416-3.917,8.7-7.582,8.7" transform="translate(-15.416)"/>
    <path id="Path_224" data-name="Path 224" class="cls-1" d="M208.31,337.09a24.021,24.021,0,0,1-.328-4.308c0-.771.038-1.521.077-2.315.044-.848.087-1.725.087-2.68,0-8.109-4.44-12.575-12.5-12.575a12.3,12.3,0,0,0-6.078,1.543,7.264,7.264,0,0,0-5.331-1.956,6.947,6.947,0,0,0-6.16,2.975c-1.914-1.83-5.092-3.232-10.341-3.232-6.881,0-11.968,2.486-14.891,7.061-.771-4.414-5.266-7.01-12.374-7.01-8.2,0-13.705,4.454-13.705,11.083a9.088,9.088,0,0,0,2.725,6.639,5.556,5.556,0,0,0-1.9,1.615,5.5,5.5,0,0,0-2.182-.444,7.093,7.093,0,0,0-1.652.2,21.628,21.628,0,0,1-.091-2.192,110.005,110.005,0,0,1,.984-13.828,33.491,33.491,0,0,0,.327-3.418c0-2.118,0-8.56-7.1-8.56a7.275,7.275,0,0,0-5.437,2.1,6.946,6.946,0,0,0-4.161-1.278c-3.774,0-8.792.871-8.792,8.406a6.4,6.4,0,0,0,2.77,5.346,4.934,4.934,0,0,0-.764.741c-2.381-3.817-6.458-5.947-11.869-5.947a11.947,11.947,0,0,0-6.231,1.733,6.678,6.678,0,0,0-4.687-1.784c-4.783,0-7.755,3-7.755,7.84a25.93,25.93,0,0,0,.294,3.577,57.369,57.369,0,0,1,.525,8.469c0,4.77-.176,7.386-.317,9.487-.094,1.4-.175,2.616-.175,4.052,0,4.909,2.818,7.839,7.538,7.839,1.576,0,6.718-.566,6.718-7.839,0-.593-.025-1.171-.062-1.739a16.257,16.257,0,0,0,3.388.364,13.893,13.893,0,0,0,11.215-4.979c.672,3.444,3.049,5.133,7.222,5.133a7.036,7.036,0,0,0,6.095-2.95,9.859,9.859,0,0,0,7.543,2.95c3.635,0,6.544-1.116,8.292-3a16.548,16.548,0,0,0,10.263,3.252c6.156,0,10.736-2.04,13.083-5.574a11.71,11.71,0,0,0,10.2,5.318,10.527,10.527,0,0,0,6.359-2.052,6.751,6.751,0,0,0,5.1,2.052,7.516,7.516,0,0,0,5.015-1.737,7.438,7.438,0,0,0,4.99,1.892c4.309,0,7.319-2.906,7.319-7.067,0-1.465-.08-2.7-.165-4.006-.1-1.563-.218-3.333-.218-5.929,0-.956.244-1.84,2.017-1.84.582,0,1.306,0,1.306,3.744,0,1.3-.078,2.559-.159,3.89-.083,1.359-.169,2.766-.169,4.244,0,4.1,2.854,6.861,7.1,6.861,4.378,0,7.318-2.861,7.318-7.118a18.162,18.162,0,0,0-.273-3.054" transform="translate(-17.386 -1.971)"/>
    <path id="Path_225" data-name="Path 225" class="cls-2" d="M119.629,384.446a2.448,2.448,0,0,1-2.453-2.765c0-1.8.51-3.951,2.943-3.951,1.223,0,2.235.2,2.235,2.662,0,1.514-.354,4.053-2.726,4.053" transform="translate(-49.527 -52.054)"/>
    <path id="Path_226" data-name="Path 226" class="cls-1" d="M331.573,377.283c-.015.071-.032.138-.046.209-.043-.029-.085-.061-.128-.089.062-.037.115-.082.175-.121" transform="translate(-198.453 -51.743)"/>
    <path id="Path_227" data-name="Path 227" class="cls-2" d="M376.17,382.889c-.439,0-1.47,0-1.47-2.3,0-2.014.4-5.392,3.054-5.392a3.812,3.812,0,0,1,.909.085,12.893,12.893,0,0,1,.124,2.269c0,1.128-.444,5.34-2.617,5.34" transform="translate(-228.556 -50.292)"/>
    <path id="Path_228" data-name="Path 228" class="cls-3" d="M89.4,349.159c1.365-2.213,4.258-3.346,6.824-3.346,8.3,0,11.355,5.714,11.355,12.51,0,7.1-3.876,13.695-12.119,13.695-2.074,0-5.131-.567-6.605-2.162,0,2.162.382,4.273.382,6.435,0,2.471-.655,4.942-3.821,4.942-3.385,0-4.64-1.956-4.64-4.942,0-3.4.491-5.509.491-13.54,0-7.516-.819-9.112-.819-12.046,0-3.038,1.528-4.943,4.858-4.943,2.293,0,3.494,1.441,4.094,3.4m10.318,9.009c0-3.191-1.474-5.559-5.132-5.559-4.148,0-5.841,3.346-5.841,6.847a5.326,5.326,0,0,0,5.35,5.663c4.094,0,5.623-3.553,5.623-6.951" transform="translate(-23.994 -29.829)"/>
    <path id="Path_229" data-name="Path 229" class="cls-3" d="M183.949,322.219c0,2.007-1.146,5.2-3.712,5.2-2.839,0-6.169-.721-6.169-4.016,0-4.273,1.583-5.508,5.9-5.508,2.784,0,3.985,1.9,3.985,4.325m-9.28,11.583c0-2.832,1.529-3.5,4.094-3.5,2.4,0,4.2.721,4.2,3.139,0,3.449-.164,5.921-.164,8.393,0,2.213.819,3.707.819,5.663,0,2.883-1.2,5.3-4.641,5.3-3.548,0-4.531-1.236-4.531-4.479s.383-6.538.383-9.782c0-1.493-.164-3.243-.164-4.736" transform="translate(-89.078 -10.457)"/>
    <path id="Path_230" data-name="Path 230" class="cls-3" d="M218.644,320.854c0,1.8-1.309,8.6-1.309,17.246,0,2.367.164,5.508,1.856,5.508.71,0,1.474-.618,2.784-.618,1.8,0,2.73,1.6,2.73,3.193,0,3.552-3.985,4.736-7.206,4.736-6.387,0-7.644-5.045-7.644-10.09,0-9.679.218-15.393.218-21.417,0-2.678,1.529-4.222,4.368-4.222,3.821,0,4.2,2.523,4.2,5.663" transform="translate(-113.957 -8.577)"/>
    <path id="Path_231" data-name="Path 231" class="cls-3" d="M282.867,349.921c0,1.9-1.911,2.779-3.713,2.779-2.183,0-2.784-2.11-7.151-2.11a2.045,2.045,0,0,0-2.293,1.9c0,4.531,14.521-.309,14.521,10.142,0,6.436-5.787,8.854-11.956,8.854-4.367,0-10.318-2.007-10.318-6.28,0-2.316,1.092-3.758,3.275-3.758,3.221,0,2.784,3.706,8.135,3.706,1.583,0,3.6-.72,3.6-2.368,0-1.75-3.111-2.317-4.476-2.42-5.459-.566-10.045-2.883-10.045-7.773,0-5.766,5.4-8.185,10.808-8.185,4.149,0,9.609.978,9.609,5.508" transform="translate(-150.179 -28.892)"/>
    <path id="Path_232" data-name="Path 232" class="cls-3" d="M364.878,351.6c0,1.647-.272,3.707-.272,5.354,0,7,.6,9.215.6,10.914,0,2.214-2.019,3.243-4.094,3.243-3.548,0-3.6-2.934-4.859-2.934-.764,0-2.347,2.934-6.6,2.934-6.769,0-9.881-5.767-9.881-11.48,0-9.884,5.131-15.393,14.848-15.393,5.677,0,10.263,1.853,10.263,7.361m-12.993,12.664c4.259,0,5.514-5.148,5.514-8.236,0-3.037-.054-5.251-3.93-5.251-4.7,0-5.951,4.634-5.951,8.288,0,2.574,1.146,5.2,4.367,5.2" transform="translate(-204.271 -28.774)"/>
    <path id="Path_233" data-name="Path 233" class="cls-3" d="M432.532,345.085c2.784,0,4.258,1.391,4.258,4.016,1.364-2.42,4.312-3.6,7.151-3.6,6.5,0,9.607,3.294,9.607,9.677,0,1.751-.163,3.3-.163,4.994,0,4.274.6,4.892.6,7.362,0,2.625-1.583,4.222-4.421,4.222-2.621,0-4.2-1.442-4.2-3.964,0-2.78.326-5.354.326-8.134,0-2.882-.326-6.641-4.2-6.641-3,0-4.914,1.8-4.914,4.736,0,4.839.382,6.847.382,9.935,0,2.523-1.638,4.171-4.422,4.171a4.143,4.143,0,0,1-4.313-3.861c0-2.368.546-4.273.546-9.164,0-4.994-.655-7.413-.655-9.318,0-2.78,1.309-4.428,4.422-4.428" transform="translate(-265.687 -29.36)"/>
    <path id="Path_234" data-name="Path 234" class="cls-1" d="M462.794,456.094a3.815,3.815,0,0,1-2.936-1.171,2.079,2.079,0,0,1-1.973,1.134,1.922,1.922,0,0,1-1.839-1.2c-.08,0-.157.005-.234.005a3.223,3.223,0,0,1-1.428-.309,3.871,3.871,0,0,1-3.262,1.538,4.114,4.114,0,0,1-2.126-.553,2.438,2.438,0,0,1-1.529.488c-.22,0-.444-.009-.668-.02-.2-.009-.385-.017-.566-.017-.126,0-.252.007-.377.015-.217.013-.406.023-.6.023a2.013,2.013,0,0,1-2.244-2.05,1.856,1.856,0,0,1,1.56-1.881c0-.136,0-.29,0-.43a1.873,1.873,0,0,1-1.659-1.88,2.077,2.077,0,0,1,1.264-1.9l.208-.093a5,5,0,0,1,2.037-.549,2.166,2.166,0,0,1,2.042,1.2,4,4,0,0,1,6.21.576c.088-.167.164-.321.226-.457a2.156,2.156,0,0,1,2.059-1.32,2.03,2.03,0,0,1,2.076,1.976,2,2,0,0,1-.062.488c.031.015.062.03.092.046a3.828,3.828,0,0,1,3.75-2.529c2.53,0,4.041,1.626,4.041,4.35,0,2.829-1.518,4.518-4.061,4.518" transform="translate(-275.977 -100.368)"/>
    <path id="Path_235" data-name="Path 235" class="cls-1" d="M463.8,448.643a3.44,3.44,0,0,0-3.523,2.864,1.314,1.314,0,0,0-.873-.537,1.869,1.869,0,0,0,.184-.764,1.6,1.6,0,0,0-1.644-1.543,1.721,1.721,0,0,0-1.666,1.066,13.551,13.551,0,0,1-.668,1.249,3.222,3.222,0,0,0-3.3-2.334,3.046,3.046,0,0,0-3.033,1.947,1.788,1.788,0,0,0-1.866-1.928,4.65,4.65,0,0,0-1.862.512l-.194.086a1.638,1.638,0,0,0-1.02,1.513,1.454,1.454,0,0,0,1.536,1.469c.043,0,.084,0,.123-.005,0,0,0,1.156,0,1.224a1.471,1.471,0,0,0-1.559,1.5c0,.379.131,1.618,1.812,1.618.186,0,.366-.01.546-.02.144-.008.287-.017.432-.017.2,0,.391.009.585.017.218.01.435.02.649.02a1.889,1.889,0,0,0,1.488-.614,3.488,3.488,0,0,0,2.167.679,3.377,3.377,0,0,0,3.126-1.693,2.586,2.586,0,0,0,1.564.464c.172,0,.35-.012.536-.024h.008a1.5,1.5,0,0,0,1.529,1.216,1.605,1.605,0,0,0,1.739-1.452,1.481,1.481,0,0,0,.162-.073,3.268,3.268,0,0,0,3.008,1.562c2.306,0,3.629-1.489,3.629-4.086,0-2.489-1.316-3.918-3.609-3.918" transform="translate(-276.963 -101.353)"/>
    <path id="Path_236" data-name="Path 236" class="cls-1" d="M460.172,461c0-.145,0-.274.006-.391a2.556,2.556,0,0,0,.568,1.111,1.567,1.567,0,0,0-.2.225,1.857,1.857,0,0,0-.361-.126c-.006-.2-.011-.464-.011-.819" transform="translate(-287.976 -109.673)"/>
    <path id="Path_237" data-name="Path 237" class="cls-2" d="M507.476,460.525c-.164,0-.291-.492-.291-1.119s.134-.842.169-.867a.227.227,0,0,1,.082-.01c.143,0,.32,0,.32.9,0,1.1-.2,1.1-.281,1.1" transform="translate(-320.659 -108.225)"/>
    <path id="Path_238" data-name="Path 238" class="cls-3" d="M450.423,457.73c-.4,0-.819-.037-1.234-.037-.326,0-.642.037-.978.037-.553,0-.948-.159-.948-.754,0-.54.435-.642.869-.642.681,0,.691-.363.691-1.052v-1.564c0-.186-.049-.456-.306-.456-.237,0-.444.13-.681.13a.6.6,0,0,1-.671-.605.8.8,0,0,1,.533-.736,4.436,4.436,0,0,1,1.679-.512c.78,0,1.007.484,1.007,1.182,0,.559-.119.866-.119,1.975a9.96,9.96,0,0,0,.069,1.462c.089.177.257.149.434.168.316.037.652.13.652.577,0,.605-.454.829-1,.829" transform="translate(-278.934 -103.365)"/>
    <path id="Path_239" data-name="Path 239" class="cls-3" d="M462.93,456.469a.688.688,0,0,1,.671-.642c.454,0,.652.559,1.462.559a1.129,1.129,0,0,0,1.214-1.192c0-.047,0-.112-.02-.112a2.12,2.12,0,0,1-1.284.429,1.973,1.973,0,0,1-2.192-1.881,2.119,2.119,0,0,1,2.35-2.151c1.866,0,2.646,1.285,2.646,2.914,0,1.816-.76,3.361-2.844,3.361-.839,0-2-.344-2-1.285m2.281-2.132a1.121,1.121,0,0,0,.968-.456,1.045,1.045,0,0,0-1.086-1.173.783.783,0,0,0-.819.8.851.851,0,0,0,.938.829" transform="translate(-289.791 -103.324)"/>
    <path id="Path_240" data-name="Path 240" class="cls-3" d="M483.35,455.216c0-.745.079-1.406.81-1.406.681,0,.75.382.75,1,0,.121,0,.3.04.3.118,0,.217-.019.336-.019.385,0,.632.177.632.55a.687.687,0,0,1-.662.773c-.227.028-.336.084-.336.177s.01.223.01.344c0,.512-.257.829-.888.829-.671,0-.731-.54-.731-.977,0-.177-.039-.261-.266-.261-.405,0-.75.047-1.077.047-.8,0-1.432-.344-1.432-1.09a2.523,2.523,0,0,1,.533-1.322,17,17,0,0,0,1.165-2.058.856.856,0,0,1,.879-.559.735.735,0,0,1,.78.68c0,.456-.553,1.108-.839,1.518a13.549,13.549,0,0,0-.987,1.415c0,.13.493.13.6.13a3.058,3.058,0,0,0,.682-.065" transform="translate(-302.133 -103.365)"/>
    <path id="Path_241" data-name="Path 241" class="cls-3" d="M501.9,451.478c1.985,0,2.744,1.238,2.744,3.054,0,1.834-.711,3.222-2.764,3.222-2.261,0-2.745-1.713-2.745-3.259,0-1.732.948-3.017,2.765-3.017m1.125,3.045c0-.829-.148-1.76-1.184-1.76-.958,0-1.116,1-1.116,1.741s.138,1.984,1.155,1.984c1.1,0,1.145-1.211,1.145-1.965" transform="translate(-315.062 -103.324)"/>
    <path id="Path_242" data-name="Path 242" class="cls-1" d="M186.368,506.8a.793.793,0,0,1-.869-.879c0-1.06.134-1.538.134-3.277,0-.392,0-.707-.353-.707-.229,0-.478.048-.707.048a.759.759,0,0,1-.86-.783c0-.6.43-.736.956-.736.544,0,1.108.077,1.681.077s1.146-.086,1.739-.086c.458,0,.879.172.879.707,0,.678-.334.8-.8.8-.258,0-.545-.029-.793-.029-.344,0-.344.363-.344.621,0,1.633.153,2.216.153,3.4a.739.739,0,0,1-.812.841" transform="translate(-95.782 -137.371)"/>
    <path id="Path_243" data-name="Path 243" class="cls-1" d="M201.816,510.025a2.22,2.22,0,0,1-2.369-2.417c0-1.462.707-2.579,2.34-2.579a2.2,2.2,0,0,1,2.341,2.465,2.311,2.311,0,0,1-2.312,2.531m.965-2.474c0-.668-.268-1.309-1.042-1.309-.707,0-.965.7-.965,1.337a1.053,1.053,0,0,0,.984,1.184,1.092,1.092,0,0,0,1.022-1.213" transform="translate(-106.721 -140.552)"/>
    <path id="Path_244" data-name="Path 244" class="cls-1" d="M216.681,505.234c.449,0,.631.287.745.678,0,0,.258.994.516,1.8a4.843,4.843,0,0,0,.239.64c.019.048.077.191.153.191s.105-.105.124-.153a19.869,19.869,0,0,0,.564-2.216c.124-.592.22-.984.793-.984a.715.715,0,0,1,.746.774,7.683,7.683,0,0,1-.621,1.968c-.2.535-.4.955-.583,1.48-.363,1.022-.993,2.436-2.254,2.436-.526,0-1.156-.239-1.156-.869,0-.459.21-.678.573-.678.239,0,.392.2.592.2a.5.5,0,0,0,.487-.516,5.9,5.9,0,0,0-.8-1.729,6.279,6.279,0,0,1-.927-2.264.715.715,0,0,1,.812-.755" transform="translate(-118.138 -140.661)"/>
    <path id="Path_245" data-name="Path 245" class="cls-1" d="M244.8,502.466a2.2,2.2,0,0,1-2.4,2.331,2.683,2.683,0,0,1-.974-.134c.009.363.077.526.077.9,0,.564-.182.974-.841.974-.582,0-.821-.42-.821-.965,0-.688.057-1.414.057-2.111,0-.907-.086-1.586-.086-2.14,0-1.242,1.586-1.242,2.36-1.242,1.615,0,2.627.6,2.627,2.388m-1.471-.057a1.02,1.02,0,0,0-1.166-1.079,1.061,1.061,0,0,0-.707.22,1.4,1.4,0,0,0-.219.869,1.253,1.253,0,0,0,.229.9,1.054,1.054,0,0,0,.63.2c.726,0,1.233-.344,1.233-1.108" transform="translate(-134.783 -137.11)"/>
    <path id="Path_246" data-name="Path 246" class="cls-1" d="M259.416,506.07c0,.019.009.077.048.077s.076-.1.086-.134a1.024,1.024,0,0,1,1-.726.772.772,0,0,1,.822.87c0,.353-.267.8-.669.8-.181,0-.334-.1-.516-.1-.592,0-.7.593-.7,1.07,0,.459.134.87.134,1.318,0,.621-.325.841-.793.841-.668,0-.774-.526-.774-1.013,0-.535.077-1.022.077-1.567a12.735,12.735,0,0,0-.239-1.6c0-.5.315-.659.755-.659.554,0,.678.363.764.822" transform="translate(-147.355 -140.704)"/>
    <path id="Path_247" data-name="Path 247" class="cls-1" d="M271.8,510.025a2.22,2.22,0,0,1-2.369-2.417c0-1.462.707-2.579,2.34-2.579a2.2,2.2,0,0,1,2.341,2.465,2.31,2.31,0,0,1-2.312,2.531m.965-2.474c0-.668-.268-1.309-1.042-1.309-.706,0-.965.7-.965,1.337a1.053,1.053,0,0,0,.984,1.184,1.092,1.092,0,0,0,1.022-1.213" transform="translate(-155.374 -140.552)"/>
    <path id="Path_248" data-name="Path 248" class="cls-1" d="M286.223,501.465c.354-.2.7.134.7-.525,0-.172-.019-.353-.019-.525a1.366,1.366,0,0,1,1.48-1.529c.526,0,1.328.162,1.328.841a.686.686,0,0,1-.649.669c-.163,0-.287-.124-.449-.124-.382,0-.449.363-.449.659,0,.277.029.382.2.382.229,0,.42-.038.66-.038.439,0,.773.105.773.611s-.363.774-.888.774c-.153,0-.363-.038-.526-.038-.1,0-.133.057-.133.21,0,.593.133,1.184.133,1.825,0,.544-.066,1.051-.745,1.051-.612,0-.812-.411-.812-.965,0-.86.124-1.213.124-1.872,0-.239-.2-.2-.44-.239-.268-.029-.564-.115-.564-.659a.54.54,0,0,1,.277-.506" transform="translate(-166.855 -136.281)"/>
    <path id="Path_249" data-name="Path 249" class="cls-1" d="M303.635,506.4c0,1.214-1.261,1.472-2.236,1.472-.162,0-.325-.029-.5-.029-.077,0-.172.019-.172.124a.57.57,0,0,0,.019.134.918.918,0,0,0,.946.66c.783,0,.821-.64,1.385-.64a.58.58,0,0,1,.611.554c0,.927-1.3,1.242-2.025,1.242a2.262,2.262,0,0,1-2.369-2.551,2.336,2.336,0,0,1,2.417-2.56,1.8,1.8,0,0,1,1.92,1.595m-1.309-.1c0-.334-.334-.44-.611-.44-.458,0-.907.22-.907.755,0,.306.21.344.468.344.411,0,1.051-.153,1.051-.659" transform="translate(-176.137 -140.4)"/>
    <path id="Path_250" data-name="Path 250" class="cls-1" d="M318.77,505.777a.617.617,0,0,1-.6.669c-.411,0-.755-.421-1.3-.421-.248,0-.468.086-.468.344,0,.363.8.459,1.089.5.812.1,1.519.411,1.519,1.347,0,1.261-.936,1.7-2.13,1.681-.707-.009-1.815-.3-1.815-1.127,0-.392.172-.688.593-.688s.573.65,1.4.65c.287,0,.631-.086.631-.42,0-.439-.8-.411-1.108-.478-.783-.153-1.433-.583-1.433-1.471,0-1.109.945-1.519,1.949-1.519.669,0,1.672.191,1.672.936" transform="translate(-187.097 -140.421)"/>
    <path id="Path_251" data-name="Path 251" class="cls-1" d="M332.952,505.925c0,.353-.335.516-.65.516-.382,0-.487-.392-1.251-.392a.365.365,0,0,0-.4.354c0,.84,2.541-.058,2.541,1.882,0,1.194-1.013,1.643-2.092,1.643-.764,0-1.805-.372-1.805-1.165,0-.43.191-.7.573-.7.564,0,.487.688,1.423.688.277,0,.631-.134.631-.44,0-.325-.545-.43-.783-.449-.956-.105-1.758-.535-1.758-1.443,0-1.07.946-1.519,1.891-1.519.726,0,1.682.182,1.682,1.022" transform="translate(-196.99 -140.464)"/>
    <path id="Path_252" data-name="Path 252" class="cls-1" d="M345.783,500.785c0,.372-.2.965-.65.965-.5,0-1.08-.134-1.08-.746,0-.793.277-1.022,1.031-1.022.487,0,.7.354.7.8m-1.624,2.149c0-.525.268-.649.717-.649.42,0,.736.133.736.583,0,.64-.029,1.1-.029,1.557,0,.411.144.688.144,1.051,0,.535-.21.984-.812.984-.621,0-.793-.229-.793-.831s.067-1.213.067-1.815c0-.277-.029-.6-.029-.879" transform="translate(-207.251 -137.043)"/>
    <path id="Path_253" data-name="Path 253" class="cls-1" d="M356.493,507.435a2.319,2.319,0,0,1-2.417,2.446,2.158,2.158,0,0,1-2.312-2.35c0-1.682.86-2.627,2.436-2.627a2.278,2.278,0,0,1,2.292,2.531m-2.35,1.184a1,1,0,0,0,.975-1.127c0-.621-.22-1.347-.975-1.347a1.133,1.133,0,0,0-1,1.146c0,.6.268,1.328,1,1.328" transform="translate(-212.612 -140.465)"/>
    <path id="Path_254" data-name="Path 254" class="cls-1" d="M370.182,505.029a.666.666,0,0,1,.745.745,1.393,1.393,0,0,1,1.251-.669c1.137,0,1.682.611,1.682,1.8,0,.325-.029.611-.029.927,0,.793.105.908.105,1.366a.711.711,0,0,1-.774.783.674.674,0,0,1-.736-.735c0-.516.057-.994.057-1.509,0-.535-.057-1.232-.736-1.232a.808.808,0,0,0-.86.879c0,.9.066,1.271.066,1.844a.717.717,0,0,1-.774.774.743.743,0,0,1-.755-.717c0-.439.1-.793.1-1.7,0-.927-.115-1.376-.115-1.729,0-.516.229-.821.774-.821" transform="translate(-224.877 -140.552)"/>
    <path id="Path_255" data-name="Path 255" class="cls-1" d="M390.664,506.238c0,.306-.048.688-.048.994,0,1.3.1,1.71.1,2.025a.635.635,0,0,1-.716.6c-.621,0-.63-.545-.85-.545-.134,0-.411.545-1.156.545-1.184,0-1.729-1.07-1.729-2.13,0-1.834.9-2.857,2.6-2.857.994,0,1.8.344,1.8,1.366m-2.274,2.35c.746,0,.965-.955.965-1.529s-.01-.974-.688-.974c-.822,0-1.041.86-1.041,1.538,0,.478.2.965.764.965" transform="translate(-236.6 -140.443)"/>
    <path id="Path_256" data-name="Path 256" class="cls-1" d="M404.8,500.533c0,.334-.229,1.6-.229,3.2,0,.44.029,1.023.324,1.023.125,0,.258-.115.488-.115.315,0,.477.3.477.592,0,.659-.7.879-1.261.879-1.118,0-1.337-.936-1.337-1.873,0-1.8.038-2.856.038-3.974a.7.7,0,0,1,.764-.783c.669,0,.736.468.736,1.051" transform="translate(-248.409 -136.696)"/>
  </g>
</svg>
